<svg width="20" height="20" viewBox="0 0 20 20" fill="none" xmlns="http://www.w3.org/2000/svg">
<path d="M0.553445 0.553431C-0.184482 1.29136 -0.184482 2.48775 0.553445 3.22567L7.32776 9.99995L0.553445 16.7744C-0.184482 17.5122 -0.184482 18.7087 0.553445 19.4466C1.29135 20.1845 2.48776 20.1845 3.22567 19.4466L9.99996 12.6722L16.7744 19.4466C17.5123 20.1845 18.7087 20.1845 19.4466 19.4466C20.1845 18.7087 20.1845 17.5122 19.4466 16.7744L12.6722 9.99995L19.4466 3.22569C20.1845 2.48779 20.1845 1.29138 19.4466 0.553469C18.7085 -0.184458 17.5123 -0.184458 16.7744 0.553469L9.99996 7.32775L3.22567 0.553431C2.48776 -0.184477 1.29135 -0.184477 0.553445 0.553431Z" fill="#DADADA"/>
</svg>
