<svg width="32" height="32" viewBox="0 0 32 32" fill="none" xmlns="http://www.w3.org/2000/svg">
<path fill-rule="evenodd" clip-rule="evenodd" d="M16 0C24.8368 0 32 7.34389 32 16.4047C32 23.6511 27.4208 29.7983 21.0672 31.9695C20.256 32.1311 19.968 31.6188 19.968 31.182C19.968 30.6412 19.9872 28.8749 19.9872 26.6797C19.9872 25.1501 19.4752 24.1518 18.9008 23.643C22.464 23.2366 26.208 21.8492 26.208 15.5484C26.208 13.7564 25.5872 12.2941 24.56 11.1453C24.7264 10.7309 25.2752 9.06233 24.4032 6.80313C24.4032 6.80313 23.0624 6.36356 20.008 8.48516C18.7296 8.12196 17.36 7.93921 16 7.93281C14.64 7.93921 13.272 8.12196 11.9952 8.48516C8.9376 6.36356 7.5936 6.80313 7.5936 6.80313C6.7248 9.06233 7.2736 10.7309 7.4384 11.1453C6.416 12.2941 5.79041 13.7564 5.79041 15.5484C5.79041 21.8332 9.52641 23.2419 13.08 23.6563C12.6224 24.0659 12.208 24.7884 12.064 25.8492C11.152 26.2684 8.8352 26.9939 7.408 24.4867C7.408 24.4867 6.5616 22.9105 4.9552 22.7953C4.9552 22.7953 3.3952 22.7746 4.8464 23.7922C4.8464 23.7922 5.8944 24.2962 6.6224 26.1922C6.6224 26.1922 7.56161 29.1201 12.0128 28.1281C12.0208 29.4993 12.0352 30.7916 12.0352 31.182C12.0352 31.6156 11.7408 32.1231 10.9424 31.9711C4.584 29.8031 0 23.6527 0 16.4047C0 7.34389 7.1648 0 16 0Z" fill="#3D3D3D"/>
</svg>
