<svg width="32" height="32" viewBox="0 0 32 32" fill="none" xmlns="http://www.w3.org/2000/svg">
<path d="M29.4393 0.00286983H2.73994C2.3958 -0.0132487 2.05185 0.038647 1.7278 0.155616C1.40375 0.272586 1.10596 0.452308 0.851441 0.684487C0.596947 0.916686 0.390731 1.1968 0.244635 1.50877C0.0985381 1.82076 0.0153996 2.15849 0 2.50264V29.2602C0.0201595 29.9804 0.315312 30.6657 0.824841 31.1751C1.33437 31.6846 2.01963 31.9798 2.73994 32H29.4393C30.1395 31.9688 30.7997 31.6644 31.2783 31.1523C31.7569 30.6401 32.0157 29.961 31.9993 29.2602V2.50264C32.0051 2.16767 31.9423 1.83508 31.8149 1.52523C31.6875 1.2154 31.4981 0.934844 31.2583 0.700766C31.0187 0.466707 30.7337 0.284085 30.4209 0.164076C30.1081 0.0440666 29.7741 -0.0107889 29.4393 0.00286983ZM9.99977 26.6805H5.33988V12.4218H9.99977V26.6805ZM7.77982 10.2619C7.45465 10.2733 7.13064 10.2172 6.82816 10.0974C6.52567 9.9775 6.25124 9.79637 6.02212 9.56537C5.79299 9.33438 5.61409 9.0585 5.49669 8.75507C5.37928 8.45164 5.3259 8.12721 5.33988 7.80216C5.3255 7.47359 5.37996 7.14566 5.49977 6.83938C5.61959 6.53309 5.80211 6.25524 6.0356 6.02364C6.26912 5.79202 6.54845 5.61178 6.8557 5.49447C7.16297 5.37714 7.49137 5.32534 7.81982 5.34238C8.14499 5.33106 8.46901 5.38708 8.77148 5.50695C9.07397 5.62682 9.3484 5.80794 9.57752 6.03894C9.80665 6.26994 9.98555 6.54581 10.1029 6.84924C10.2204 7.15268 10.2737 7.47711 10.2598 7.80216C10.2741 8.13073 10.2197 8.45866 10.0999 8.76493C9.98005 9.07122 9.79754 9.34908 9.56404 9.58067C9.33053 9.81229 9.05119 9.99254 8.74394 10.1098C8.43667 10.2272 8.10827 10.279 7.77982 10.2619ZM26.6794 26.6805H21.9995V18.8812C21.9995 17.0214 21.3395 15.7415 19.6795 15.7415C19.164 15.7459 18.6622 15.9097 18.2434 16.2104C17.8244 16.5112 17.5088 16.9342 17.3396 17.4213C17.2096 17.7865 17.1552 18.1743 17.1796 18.5612V26.6805H12.5797V12.4218H17.1796V14.4216C17.5886 13.6703 18.1972 13.0467 18.9384 12.6196C19.6795 12.1926 20.5243 11.9788 21.3795 12.0018C24.3994 12.0018 26.6794 14.0016 26.6794 18.2613V26.6805Z" fill="#3D3D3D"/>
</svg>
