<svg width="54" height="54" viewBox="0 0 54 54" fill="none" xmlns="http://www.w3.org/2000/svg">
<path d="M0 27C0 12.0883 12.0883 0 27 0C41.9117 0 54 12.0883 54 27C54 41.9117 41.9117 54 27 54C12.0883 54 0 41.9117 0 27Z" fill="url(#paint0_linear_57_158)" fill-opacity="0.8"/>
<path d="M24.2898 31.0142V30.7557C24.2964 29.5559 24.4091 28.6013 24.6278 27.892C24.8532 27.1828 25.1714 26.6127 25.5824 26.1818C25.9934 25.7443 26.4938 25.3433 27.0838 24.9787C27.4882 24.7268 27.8494 24.4517 28.1676 24.1534C28.4924 23.8485 28.7476 23.5104 28.9332 23.1392C29.1188 22.7614 29.2116 22.3404 29.2116 21.8764C29.2116 21.3527 29.089 20.8987 28.8438 20.5142C28.5985 20.1297 28.267 19.8314 27.8494 19.6193C27.4384 19.4072 26.9777 19.3011 26.4673 19.3011C25.9967 19.3011 25.5492 19.4039 25.125 19.6094C24.7074 19.8082 24.3594 20.1132 24.081 20.5241C23.8092 20.9285 23.6567 21.4422 23.6236 22.0653H20.0838C20.117 20.8059 20.4219 19.7519 20.9986 18.9034C21.5819 18.0549 22.3509 17.4186 23.3054 16.9943C24.2666 16.5701 25.3272 16.358 26.4872 16.358C27.7533 16.358 28.867 16.58 29.8281 17.0241C30.7959 17.4683 31.5483 18.1013 32.0852 18.9233C32.6288 19.7386 32.9006 20.7064 32.9006 21.8267C32.9006 22.5824 32.7779 23.2585 32.5327 23.8551C32.294 24.4517 31.9527 24.982 31.5085 25.446C31.0644 25.91 30.5374 26.3243 29.9276 26.6889C29.3906 27.0204 28.9498 27.3651 28.6051 27.723C28.267 28.081 28.0152 28.5019 27.8494 28.9858C27.6903 29.4631 27.6075 30.053 27.6009 30.7557V31.0142H24.2898ZM26.0199 37.2188C25.4233 37.2188 24.9096 37.0066 24.4787 36.5824C24.0478 36.1581 23.8324 35.6411 23.8324 35.0312C23.8324 34.4347 24.0478 33.9242 24.4787 33.5C24.9096 33.0758 25.4233 32.8636 26.0199 32.8636C26.6098 32.8636 27.1203 33.0758 27.5511 33.5C27.9886 33.9242 28.2074 34.4347 28.2074 35.0312C28.2074 35.4356 28.1046 35.8035 27.8991 36.1349C27.7003 36.4664 27.4351 36.7315 27.1037 36.9304C26.7789 37.1226 26.4176 37.2188 26.0199 37.2188Z" fill="white"/>
<defs>
<linearGradient id="paint0_linear_57_158" x1="0" y1="27" x2="54" y2="27" gradientUnits="userSpaceOnUse">
<stop stop-color="#F16952"/>
<stop offset="1" stop-color="#D149E5"/>
</linearGradient>
</defs>
</svg>
